<svg width="638" height="120" viewBox="0 0 638 120" fill="none" xmlns="http://www.w3.org/2000/svg">
<g clip-path="url(#clip0_10_12)">
<path d="M34.0875 50.355L30.825 60H22.5L36.465 22.5H46.095L60 60H51.2475L47.985 50.355H34.0875ZM46.3425 44.835L41.25 29.67H40.8825L35.79 44.835H46.3425Z" fill="#222222"/>
<path d="M0 15C0 11.0218 1.58035 7.20644 4.3934 4.3934C7.20644 1.58035 11.0218 0 15 0L67.5 0C71.4782 0 75.2936 1.58035 78.1066 4.3934C80.9196 7.20644 82.5 11.0218 82.5 15V37.5H105C108.978 37.5 112.794 39.0804 115.607 41.8934C118.42 44.7064 120 48.5218 120 52.5V105C120 108.978 118.42 112.794 115.607 115.607C112.794 118.42 108.978 120 105 120H52.5C48.5218 120 44.7064 118.42 41.8934 115.607C39.0804 112.794 37.5 108.978 37.5 105V82.5H15C11.0218 82.5 7.20644 80.9196 4.3934 78.1066C1.58035 75.2936 0 71.4782 0 67.5V15ZM15 7.5C13.0109 7.5 11.1032 8.29018 9.6967 9.6967C8.29018 11.1032 7.5 13.0109 7.5 15V67.5C7.5 69.4891 8.29018 71.3968 9.6967 72.8033C11.1032 74.2098 13.0109 75 15 75H67.5C69.4891 75 71.3968 74.2098 72.8033 72.8033C74.2098 71.3968 75 69.4891 75 67.5V15C75 13.0109 74.2098 11.1032 72.8033 9.6967C71.3968 8.29018 69.4891 7.5 67.5 7.5H15ZM68.535 82.4625C69.9825 84.72 71.55 86.835 73.26 88.8075C67.65 93.12 60.7125 96.315 52.5 98.4975C53.835 100.125 55.8825 103.26 56.6625 105C65.1 102.308 72.2625 98.67 78.3075 93.795C84.135 98.7825 91.35 102.532 100.283 104.835C101.28 102.93 103.387 99.7875 105 98.16C96.5625 96.2625 89.5725 92.955 83.85 88.53C88.9575 82.9275 93.015 76.1475 96.0075 67.8525H105V60H82.5V67.8525H88.2375C85.8525 74.1825 82.6875 79.4475 78.6975 83.8275C77.5954 82.6534 76.5565 81.4217 75.585 80.1375C73.4686 81.4945 71.0434 82.2943 68.535 82.4625Z" fill="#222222"/>
</g>
<path d="M171.045 36.4545H183.182L196 67.7273H196.545L209.364 36.4545H221.5V83H211.955V52.7045H211.568L199.523 82.7727H193.023L180.977 52.5909H180.591V83H171.045V36.4545ZM229.426 83V48.0909H239.108V83H229.426ZM234.29 43.5909C232.85 43.5909 231.616 43.1136 230.585 42.1591C229.57 41.1894 229.062 40.0303 229.062 38.6818C229.062 37.3485 229.57 36.2045 230.585 35.25C231.616 34.2803 232.85 33.7955 234.29 33.7955C235.729 33.7955 236.956 34.2803 237.972 35.25C239.002 36.2045 239.517 37.3485 239.517 38.6818C239.517 40.0303 239.002 41.1894 237.972 42.1591C236.956 43.1136 235.729 43.5909 234.29 43.5909ZM256.545 62.8182V83H246.864V48.0909H256.091V54.25H256.5C257.273 52.2197 258.568 50.6136 260.386 49.4318C262.205 48.2348 264.409 47.6364 267 47.6364C269.424 47.6364 271.538 48.1667 273.341 49.2273C275.144 50.2879 276.545 51.803 277.545 53.7727C278.545 55.7273 279.045 58.0606 279.045 60.7727V83H269.364V62.5C269.379 60.3636 268.833 58.697 267.727 57.5C266.621 56.2879 265.098 55.6818 263.159 55.6818C261.856 55.6818 260.705 55.9621 259.705 56.5227C258.72 57.0833 257.947 57.9015 257.386 58.9773C256.841 60.0379 256.561 61.3182 256.545 62.8182ZM286.676 83V48.0909H296.358V83H286.676ZM291.54 43.5909C290.1 43.5909 288.866 43.1136 287.835 42.1591C286.82 41.1894 286.312 40.0303 286.312 38.6818C286.312 37.3485 286.82 36.2045 287.835 35.25C288.866 34.2803 290.1 33.7955 291.54 33.7955C292.979 33.7955 294.206 34.2803 295.222 35.25C296.252 36.2045 296.767 37.3485 296.767 38.6818C296.767 40.0303 296.252 41.1894 295.222 42.1591C294.206 43.1136 292.979 43.5909 291.54 43.5909ZM325.864 60.0455V67.7273H304.636V60.0455H325.864ZM352.682 48.0909V55.3636H331.659V48.0909H352.682ZM336.432 39.7273H346.114V72.2727C346.114 73.1667 346.25 73.8636 346.523 74.3636C346.795 74.8485 347.174 75.1894 347.659 75.3864C348.159 75.5833 348.735 75.6818 349.386 75.6818C349.841 75.6818 350.295 75.6439 350.75 75.5682C351.205 75.4773 351.553 75.4091 351.795 75.3636L353.318 82.5682C352.833 82.7197 352.152 82.8939 351.273 83.0909C350.394 83.303 349.326 83.4318 348.068 83.4773C345.735 83.5682 343.689 83.2576 341.932 82.5455C340.189 81.8333 338.833 80.7273 337.864 79.2273C336.894 77.7273 336.417 75.8333 336.432 73.5455V39.7273ZM358.989 83V48.0909H368.375V54.1818H368.739C369.375 52.0152 370.443 50.3788 371.943 49.2727C373.443 48.1515 375.17 47.5909 377.125 47.5909C377.61 47.5909 378.133 47.6212 378.693 47.6818C379.254 47.7424 379.746 47.8258 380.17 47.9318V56.5227C379.716 56.3864 379.087 56.2652 378.284 56.1591C377.481 56.053 376.746 56 376.08 56C374.655 56 373.383 56.3106 372.261 56.9318C371.155 57.5379 370.277 58.3864 369.625 59.4773C368.989 60.5682 368.67 61.8258 368.67 63.25V83H358.989ZM394.131 83.6591C391.903 83.6591 389.919 83.2727 388.176 82.5C386.434 81.7121 385.055 80.553 384.04 79.0227C383.04 77.4773 382.54 75.553 382.54 73.25C382.54 71.3106 382.896 69.6818 383.608 68.3636C384.32 67.0455 385.29 65.9848 386.517 65.1818C387.744 64.3788 389.138 63.7727 390.699 63.3636C392.275 62.9545 393.926 62.6667 395.653 62.5C397.684 62.2879 399.32 62.0909 400.562 61.9091C401.805 61.7121 402.706 61.4242 403.267 61.0455C403.828 60.6667 404.108 60.1061 404.108 59.3636V59.2273C404.108 57.7879 403.653 56.6742 402.744 55.8864C401.85 55.0985 400.578 54.7045 398.926 54.7045C397.184 54.7045 395.797 55.0909 394.767 55.8636C393.737 56.6212 393.055 57.5758 392.722 58.7273L383.767 58C384.222 55.8788 385.116 54.0455 386.449 52.5C387.782 50.9394 389.502 49.7424 391.608 48.9091C393.729 48.0606 396.184 47.6364 398.972 47.6364C400.911 47.6364 402.767 47.8636 404.54 48.3182C406.328 48.7727 407.911 49.4773 409.29 50.4318C410.684 51.3864 411.782 52.6136 412.585 54.1136C413.388 55.5985 413.79 57.3788 413.79 59.4545V83H404.608V78.1591H404.335C403.775 79.25 403.025 80.2121 402.085 81.0455C401.146 81.8636 400.017 82.5076 398.699 82.9773C397.381 83.4318 395.858 83.6591 394.131 83.6591ZM396.903 76.9773C398.328 76.9773 399.585 76.697 400.676 76.1364C401.767 75.5606 402.623 74.7879 403.244 73.8182C403.866 72.8485 404.176 71.75 404.176 70.5227V66.8182C403.873 67.0152 403.456 67.197 402.926 67.3636C402.411 67.5152 401.828 67.6591 401.176 67.7955C400.525 67.9167 399.873 68.0303 399.222 68.1364C398.57 68.2273 397.979 68.3106 397.449 68.3864C396.313 68.553 395.32 68.8182 394.472 69.1818C393.623 69.5455 392.964 70.0379 392.494 70.6591C392.025 71.2652 391.79 72.0227 391.79 72.9318C391.79 74.25 392.267 75.2576 393.222 75.9545C394.191 76.6364 395.419 76.9773 396.903 76.9773ZM430.983 62.8182V83H421.301V48.0909H430.528V54.25H430.938C431.71 52.2197 433.006 50.6136 434.824 49.4318C436.642 48.2348 438.847 47.6364 441.438 47.6364C443.862 47.6364 445.975 48.1667 447.778 49.2273C449.581 50.2879 450.983 51.803 451.983 53.7727C452.983 55.7273 453.483 58.0606 453.483 60.7727V83H443.801V62.5C443.816 60.3636 443.271 58.697 442.165 57.5C441.059 56.2879 439.536 55.6818 437.597 55.6818C436.294 55.6818 435.142 55.9621 434.142 56.5227C433.157 57.0833 432.384 57.9015 431.824 58.9773C431.278 60.0379 430.998 61.3182 430.983 62.8182ZM490.159 58.0455L481.295 58.5909C481.144 57.8333 480.818 57.1515 480.318 56.5455C479.818 55.9242 479.159 55.4318 478.341 55.0682C477.538 54.6894 476.576 54.5 475.455 54.5C473.955 54.5 472.689 54.8182 471.659 55.4545C470.629 56.0758 470.114 56.9091 470.114 57.9545C470.114 58.7879 470.447 59.4924 471.114 60.0682C471.78 60.6439 472.924 61.1061 474.545 61.4545L480.864 62.7273C484.258 63.4242 486.788 64.5455 488.455 66.0909C490.121 67.6364 490.955 69.6667 490.955 72.1818C490.955 74.4697 490.28 76.4773 488.932 78.2045C487.598 79.9318 485.765 81.2803 483.432 82.25C481.114 83.2045 478.439 83.6818 475.409 83.6818C470.788 83.6818 467.106 82.7197 464.364 80.7955C461.636 78.8561 460.038 76.2197 459.568 72.8864L469.091 72.3864C469.379 73.7955 470.076 74.8712 471.182 75.6136C472.288 76.3409 473.705 76.7045 475.432 76.7045C477.129 76.7045 478.492 76.3788 479.523 75.7273C480.568 75.0606 481.098 74.2045 481.114 73.1591C481.098 72.2803 480.727 71.5606 480 71C479.273 70.4242 478.152 69.9848 476.636 69.6818L470.591 68.4773C467.182 67.7955 464.644 66.6136 462.977 64.9318C461.326 63.25 460.5 61.1061 460.5 58.5C460.5 56.2576 461.106 54.3258 462.318 52.7045C463.545 51.0833 465.265 49.8333 467.477 48.9545C469.705 48.0758 472.311 47.6364 475.295 47.6364C479.705 47.6364 483.174 48.5682 485.705 50.4318C488.25 52.2955 489.735 54.8333 490.159 58.0455ZM506.733 36.4545V83H497.051V36.4545H506.733ZM524.443 83.6591C522.216 83.6591 520.231 83.2727 518.489 82.5C516.746 81.7121 515.367 80.553 514.352 79.0227C513.352 77.4773 512.852 75.553 512.852 73.25C512.852 71.3106 513.208 69.6818 513.92 68.3636C514.633 67.0455 515.602 65.9848 516.83 65.1818C518.057 64.3788 519.451 63.7727 521.011 63.3636C522.587 62.9545 524.239 62.6667 525.966 62.5C527.996 62.2879 529.633 62.0909 530.875 61.9091C532.117 61.7121 533.019 61.4242 533.58 61.0455C534.14 60.6667 534.42 60.1061 534.42 59.3636V59.2273C534.42 57.7879 533.966 56.6742 533.057 55.8864C532.163 55.0985 530.89 54.7045 529.239 54.7045C527.496 54.7045 526.11 55.0909 525.08 55.8636C524.049 56.6212 523.367 57.5758 523.034 58.7273L514.08 58C514.534 55.8788 515.428 54.0455 516.761 52.5C518.095 50.9394 519.814 49.7424 521.92 48.9091C524.042 48.0606 526.496 47.6364 529.284 47.6364C531.223 47.6364 533.08 47.8636 534.852 48.3182C536.64 48.7727 538.223 49.4773 539.602 50.4318C540.996 51.3864 542.095 52.6136 542.898 54.1136C543.701 55.5985 544.102 57.3788 544.102 59.4545V83H534.92V78.1591H534.648C534.087 79.25 533.337 80.2121 532.398 81.0455C531.458 81.8636 530.33 82.5076 529.011 82.9773C527.693 83.4318 526.17 83.6591 524.443 83.6591ZM527.216 76.9773C528.64 76.9773 529.898 76.697 530.989 76.1364C532.08 75.5606 532.936 74.7879 533.557 73.8182C534.178 72.8485 534.489 71.75 534.489 70.5227V66.8182C534.186 67.0152 533.769 67.197 533.239 67.3636C532.723 67.5152 532.14 67.6591 531.489 67.7955C530.837 67.9167 530.186 68.0303 529.534 68.1364C528.883 68.2273 528.292 68.3106 527.761 68.3864C526.625 68.553 525.633 68.8182 524.784 69.1818C523.936 69.5455 523.277 70.0379 522.807 70.6591C522.337 71.2652 522.102 72.0227 522.102 72.9318C522.102 74.25 522.58 75.2576 523.534 75.9545C524.504 76.6364 525.731 76.9773 527.216 76.9773ZM570.182 48.0909V55.3636H549.159V48.0909H570.182ZM553.932 39.7273H563.614V72.2727C563.614 73.1667 563.75 73.8636 564.023 74.3636C564.295 74.8485 564.674 75.1894 565.159 75.3864C565.659 75.5833 566.235 75.6818 566.886 75.6818C567.341 75.6818 567.795 75.6439 568.25 75.5682C568.705 75.4773 569.053 75.4091 569.295 75.3636L570.818 82.5682C570.333 82.7197 569.652 82.8939 568.773 83.0909C567.894 83.303 566.826 83.4318 565.568 83.4773C563.235 83.5682 561.189 83.2576 559.432 82.5455C557.689 81.8333 556.333 80.7273 555.364 79.2273C554.394 77.7273 553.917 75.8333 553.932 73.5455V39.7273ZM591.886 83.6818C588.356 83.6818 585.303 82.9318 582.727 81.4318C580.167 79.9167 578.189 77.8106 576.795 75.1136C575.402 72.4015 574.705 69.2576 574.705 65.6818C574.705 62.0758 575.402 58.9242 576.795 56.2273C578.189 53.5152 580.167 51.4091 582.727 49.9091C585.303 48.3939 588.356 47.6364 591.886 47.6364C595.417 47.6364 598.462 48.3939 601.023 49.9091C603.598 51.4091 605.583 53.5152 606.977 56.2273C608.371 58.9242 609.068 62.0758 609.068 65.6818C609.068 69.2576 608.371 72.4015 606.977 75.1136C605.583 77.8106 603.598 79.9167 601.023 81.4318C598.462 82.9318 595.417 83.6818 591.886 83.6818ZM591.932 76.1818C593.538 76.1818 594.879 75.7273 595.955 74.8182C597.03 73.8939 597.841 72.6364 598.386 71.0455C598.947 69.4545 599.227 67.6439 599.227 65.6136C599.227 63.5833 598.947 61.7727 598.386 60.1818C597.841 58.5909 597.03 57.3333 595.955 56.4091C594.879 55.4848 593.538 55.0227 591.932 55.0227C590.311 55.0227 588.947 55.4848 587.841 56.4091C586.75 57.3333 585.924 58.5909 585.364 60.1818C584.818 61.7727 584.545 63.5833 584.545 65.6136C584.545 67.6439 584.818 69.4545 585.364 71.0455C585.924 72.6364 586.75 73.8939 587.841 74.8182C588.947 75.7273 590.311 76.1818 591.932 76.1818ZM615.364 83V48.0909H624.75V54.1818H625.114C625.75 52.0152 626.818 50.3788 628.318 49.2727C629.818 48.1515 631.545 47.5909 633.5 47.5909C633.985 47.5909 634.508 47.6212 635.068 47.6818C635.629 47.7424 636.121 47.8258 636.545 47.9318V56.5227C636.091 56.3864 635.462 56.2652 634.659 56.1591C633.856 56.053 633.121 56 632.455 56C631.03 56 629.758 56.3106 628.636 56.9318C627.53 57.5379 626.652 58.3864 626 59.4773C625.364 60.5682 625.045 61.8258 625.045 63.25V83H615.364Z" fill="#222222"/>
<defs>
<clipPath id="clip0_10_12">
<rect width="120" height="120" fill="white"/>
</clipPath>
</defs>
</svg>
