<svg width="150" height="150" viewBox="0 0 150 150" fill="none" xmlns="http://www.w3.org/2000/svg">
<rect width="150" height="150" rx="21" fill="white"/>
<g clip-path="url(#clip0_10_41)">
<path d="M49.0875 65.355L45.825 75H37.5L51.465 37.5H61.095L75 75H66.2475L62.985 65.355H49.0875ZM61.3425 59.835L56.25 44.67H55.8825L50.79 59.835H61.3425Z" fill="#222222"/>
<path d="M15 30C15 26.0218 16.5804 22.2064 19.3934 19.3934C22.2064 16.5804 26.0218 15 30 15H82.5C86.4782 15 90.2936 16.5804 93.1066 19.3934C95.9196 22.2064 97.5 26.0218 97.5 30V52.5H120C123.978 52.5 127.794 54.0804 130.607 56.8934C133.42 59.7064 135 63.5218 135 67.5V120C135 123.978 133.42 127.794 130.607 130.607C127.794 133.42 123.978 135 120 135H67.5C63.5218 135 59.7064 133.42 56.8934 130.607C54.0804 127.794 52.5 123.978 52.5 120V97.5H30C26.0218 97.5 22.2064 95.9196 19.3934 93.1066C16.5804 90.2936 15 86.4782 15 82.5V30ZM30 22.5C28.0109 22.5 26.1032 23.2902 24.6967 24.6967C23.2902 26.1032 22.5 28.0109 22.5 30V82.5C22.5 84.4891 23.2902 86.3968 24.6967 87.8033C26.1032 89.2098 28.0109 90 30 90H82.5C84.4891 90 86.3968 89.2098 87.8033 87.8033C89.2098 86.3968 90 84.4891 90 82.5V30C90 28.0109 89.2098 26.1032 87.8033 24.6967C86.3968 23.2902 84.4891 22.5 82.5 22.5H30ZM83.535 97.4625C84.9825 99.72 86.55 101.835 88.26 103.807C82.65 108.12 75.7125 111.315 67.5 113.498C68.835 115.125 70.8825 118.26 71.6625 120C80.1 117.308 87.2625 113.67 93.3075 108.795C99.135 113.782 106.35 117.532 115.283 119.835C116.28 117.93 118.387 114.788 120 113.16C111.562 111.263 104.573 107.955 98.85 103.53C103.958 97.9275 108.015 91.1475 111.007 82.8525H120V75H97.5V82.8525H103.238C100.853 89.1825 97.6875 94.4475 93.6975 98.8275C92.5954 97.6534 91.5565 96.4217 90.585 95.1375C88.4686 96.4945 86.0434 97.2943 83.535 97.4625Z" fill="#222222"/>
</g>
<defs>
<clipPath id="clip0_10_41">
<rect width="120" height="120" fill="white" transform="translate(15 15)"/>
</clipPath>
</defs>
</svg>
